Body of Proof S01E08 HDTV DD5.1 ENG+NL Subs

Verenigde Staten ~ 60 minuten per aflevering ~ gecreëerd door Chris Murphey ~ met Windell Middlebrooks, Dana Delany en Jeri Ryan.

Megan en het team onderzoeken de dood van een Pilidelphia detective bij een hit-and-run; Megan vraagt haar moeder (Joan Cassidy) om hulp.

Bestandsformaat: .MKV
Bestandsgrootte: 1,09 GB
Taal: Engels in DD5.1
Ondertitelingen:Nederlands custom door wivr (in te stellen)
Categorie : Serie
Beelformaat: 16:9
Bron : HDTV
Menu: Nee
Extra's: Nee
Genre : Misdaad ~ Drama
Weblink :  http://www.imdb.com/title/tt1587669/

~~~~~~~~~~~~~~~~~~~~~~
USA  ~ 60 minutes per episode ~ created by Chris Murphy ~ with Windell Middlebrooks, Dana Delany and Jeri Ryan

Megan and the team investigate when a Philadelphia homicide detective is killed in a hit-and-run; Megan turns to her mother (Joanna Cassidy) for help.

File Format: .MKV
File size: 1.09 GB
Language: English in DD5.1
Subtitles: Dutch custom by wivr (selectable)
Category : Series
Format : 16:9
Source : HDTV
Menu: No
Extras: No
Genre : Drama ~ Crime
Weblink :  http://www.imdb.com/title/tt1587669/

Video and audio information:
~~~~~~~~~~~~~~~~~~~~~~
Video
ID                               : 1
Format                           : AVC
Format/Info                      : Advanced Video Codec
Format profile                   : High@L4.1
Format settings, CABAC           : Yes
Format settings, ReFrames        : 8 frames
Codec ID                         : V_MPEG4/ISO/AVC
Duration                         : 43mn 30s
Bit rate                         : 3 208 Kbps
Width                            : 1 280 pixels
Height                           : 720 pixels
Display aspect ratio             : 16:9
Frame rate                       : 23.976 fps
Color space                      : YUV
Chroma subsampling               : 4:2:0
Bit depth                        : 8 bits
Scan type                        : Progressive
Bits/(Pixel*Frame)               : 0.145
Stream size                      : 976 MiB (87%)
Writing library                  : x264 core 115 r1947 b5a8ad7
Encoding settings                : cabac=1 / ref=8 / deblock=1:-2:-2 / analyse=0x3:0x113 / me=umh / subme=9 / psy=1 / psy_rd=1.00:0.00 / mixed_ref=1 / me_range=24 / chroma_me=1 / trellis=1 / 8x8dct=1 / cqm=0 / deadzone=21,11 / fast_pskip=0 / chroma_qp_offset=-2 / threads=6 / sliced_threads=0 / nr=0 / decimate=1 / interlaced=0 / bluray_compat=0 / constrained_intra=0 / bframes=5 / b_pyramid=2 / b_adapt=1 / b_bias=0 / direct=3 / weightb=1 / open_gop=0 / weightp=2 / keyint=250 / keyint_min=23 / scenecut=40 / intra_refresh=0 / rc_lookahead=40 / rc=2pass / mbtree=1 / bitrate=3208 / ratetol=1.0 / qcomp=0.60 / qpmin=0 / qpmax=69 / qpstep=4 / cplxblur=20.0 / qblur=0.5 / ip_ratio=1.40 / aq=1:1.00
Language                         : English

Audio
ID                               : 2
Format                           : AC-3
Format/Info                      : Audio Coding 3
Mode extension                   : CM (complete main)
Codec ID                         : A_AC3
Duration                         : 43mn 30s
Bit rate mode                    : Constant
Bit rate                         : 384 Kbps
Channel(s)                       : 6 channels
Channel positions                : Front: L C R, Side: L R, LFE
Sampling rate                    : 48.0 KHz
Bit depth                        : 16 bits
Compression mode                 : Lossy
Stream size                      : 119 MiB (11%)

~~~~~~~~~~~~~~~
Hornigold TBS
~~~~~~~~~~~~~~~